<svg width="50" height="50" viewBox="0 0 191 191" fill="none" xmlns="http://www.w3.org/2000/svg">
<path d="M0.346191 38.5189V152.636C0.346191 163.143 4.32176 172.482 10.6827 179.778C17.0436 186.783 25.2597 190.577 34.8011 190.577H86.7484V166.937H34.8011C27.6451 166.937 22.0793 160.516 22.0793 152.636V38.5189C22.0793 30.6387 27.6451 24.5097 34.8011 24.5097H86.7484V0.577271H34.8011C25.2597 0.577271 17.0436 4.66329 10.6827 11.6679C4.32176 18.9644 0.346191 28.012 0.346191 38.5189ZM57.3293 72.9582V118.488C57.3293 123.742 61.5699 128.12 66.3406 128.12H114.312V164.018C114.312 167.229 115.903 169.855 118.553 171.315C119.613 171.606 120.673 171.606 121.203 171.606C123.059 171.606 124.649 171.023 125.974 169.563L188.258 100.977C191.173 98.3499 190.908 93.0965 188.258 90.1779L125.974 21.883C122.263 17.5051 114.312 20.1318 114.312 27.1364V63.3269H66.3406C61.5699 63.3269 57.3293 67.7048 57.3293 72.9582Z" fill="#F8F8F8"/>
</svg>
